<?xml version="1.0" standalone="no"?>
<!DOCTYPE svg PUBLIC "-//W3C//DTD SVG 20010904//EN"
 "http://www.w3.org/TR/2001/REC-SVG-20010904/DTD/svg10.dtd">
<svg version="1.0" xmlns="http://www.w3.org/2000/svg"
 width="3000.000000pt" height="3000.000000pt" viewBox="0 0 3000.000000 3000.000000"
 preserveAspectRatio="xMidYMid meet">
<metadata>
Created by potrace 1.14, written by Peter Selinger 2001-2017
</metadata>
<g transform="translate(0.000000,3000.000000) scale(0.100000,-0.100000)"
fill="#000000" stroke="none">
<path d="M11350 23020 c-172 -37 -318 -116 -438 -238 -122 -122 -206 -276
-237 -433 -3 -13 -8 -37 -11 -54 -10 -51 -6 -237 6 -290 6 -27 13 -57 15 -65
8 -38 38 -121 46 -126 5 -3 9 -12 9 -20 0 -22 101 -173 151 -225 106 -111 240
-194 383 -238 88 -27 120 -32 242 -36 136 -5 264 21 388 80 l48 23 46 -41
c102 -92 136 -123 156 -142 12 -11 71 -65 131 -119 61 -55 117 -106 126 -115
9 -9 34 -32 55 -51 35 -32 207 -188 324 -295 25 -23 77 -70 115 -106 39 -35
75 -68 81 -74 6 -5 49 -44 94 -85 46 -41 88 -79 94 -85 6 -5 60 -55 121 -110
60 -55 119 -109 131 -120 11 -11 63 -58 115 -105 52 -47 121 -110 154 -141 33
-30 77 -71 99 -90 21 -19 53 -47 70 -64 18 -16 75 -68 126 -115 52 -47 119
-108 149 -136 31 -28 88 -79 126 -114 39 -36 75 -69 81 -75 6 -5 50 -46 99
-90 48 -44 103 -93 121 -110 18 -16 67 -61 110 -100 43 -38 90 -81 104 -95 15
-14 71 -65 126 -115 54 -49 122 -111 149 -137 28 -25 62 -56 76 -67 l26 -20
184 191 c101 105 209 217 239 248 178 185 447 464 500 520 34 36 115 119 179
186 104 108 436 452 603 626 l65 66 -63 59 c-34 32 -108 102 -165 157 l-102
99 -90 -94 c-83 -88 -422 -440 -547 -569 -30 -32 -104 -109 -165 -172 -60 -63
-204 -212 -320 -332 -115 -119 -239 -248 -275 -286 l-66 -69 -49 46 c-28 24
-68 61 -90 82 -22 21 -92 84 -155 141 -63 57 -120 109 -126 114 -6 6 -56 52
-110 101 -54 50 -126 115 -159 145 -32 30 -64 60 -70 65 -31 27 -191 173 -215
195 -15 14 -64 59 -110 100 -46 41 -95 86 -109 100 -25 24 -192 175 -275 250
-21 19 -46 42 -55 51 -9 9 -65 60 -126 115 -60 54 -119 108 -131 119 -11 11
-39 36 -60 55 -60 54 -278 253 -284 259 -3 4 -48 44 -100 91 -52 47 -104 94
-116 105 -11 11 -58 54 -104 95 -45 41 -99 91 -120 110 -20 19 -57 53 -81 74
-24 22 -81 73 -125 114 l-82 73 23 42 c92 165 125 416 81 612 -19 87 -95 252
-144 315 -131 167 -278 269 -469 326 -119 35 -299 41 -423 14z m315 -455 c27
-10 72 -32 100 -50 44 -28 64 -47 118 -115 23 -28 57 -119 65 -172 18 -124
-28 -267 -116 -355 -44 -45 -130 -100 -169 -108 -10 -2 -36 -7 -58 -13 -149
-34 -330 44 -424 183 -140 206 -62 495 162 605 105 51 218 60 322 25z"/>
<path d="M20242 22903 c-13 -2 -41 -22 -62 -43 -66 -66 -70 -166 -8 -230 39
-41 68 -51 158 -56 135 -6 249 -14 262 -19 7 -2 31 -6 53 -9 196 -26 451 -107
654 -210 117 -60 126 -64 210 -119 613 -399 990 -1048 1026 -1764 8 -157 12
-182 41 -221 65 -85 197 -86 262 -1 29 38 39 78 37 159 -16 630 -249 1208
-681 1686 -68 75 -201 199 -278 259 -21 17 -45 36 -52 42 -7 7 -70 51 -140 98
-326 218 -702 360 -1083 410 -25 4 -61 8 -79 11 -53 7 -295 12 -320 7z"/>
<path d="M20215 22257 c-49 -28 -73 -61 -83 -117 -13 -72 15 -133 80 -173 23
-14 56 -20 127 -23 369 -17 673 -128 956 -349 143 -112 292 -280 382 -430 19
-33 107 -208 120 -240 28 -72 62 -186 77 -260 25 -129 26 -135 31 -250 7 -129
16 -163 53 -197 40 -38 65 -48 117 -48 105 0 173 77 170 195 -2 67 -13 207
-20 245 -19 114 -29 162 -55 252 -24 86 -37 125 -56 168 -1 3 -5 16 -9 29 -13
40 -90 192 -138 274 -242 408 -647 723 -1112 863 -44 14 -93 27 -110 30 -16 3
-46 9 -65 14 -19 5 -55 12 -80 15 -25 3 -52 8 -61 11 -9 2 -77 6 -151 9 -124
3 -138 2 -173 -18z"/>
<path d="M20223 21581 c-114 -52 -127 -218 -23 -287 29 -20 55 -26 116 -30
162 -10 272 -37 388 -96 106 -54 153 -87 241 -173 117 -113 204 -259 245 -408
24 -86 28 -112 36 -222 8 -96 31 -144 84 -174 42 -23 117 -28 153 -10 33 17
67 51 84 83 30 58 12 265 -39 429 -12 40 -22 74 -23 77 -6 20 -31 76 -63 140
-52 104 -124 203 -227 314 -74 79 -216 181 -334 241 -82 41 -253 100 -322 111
-82 13 -94 14 -184 19 -74 4 -97 1 -132 -14z"/>
<path d="M20180 21203 c-14 -2 -61 -13 -105 -24 -271 -68 -505 -278 -600 -540
-30 -81 -29 -79 -38 -129 -15 -80 -17 -98 -18 -165 0 -130 28 -268 77 -371
l25 -54 -19 -27 c-11 -16 -31 -37 -44 -49 -12 -11 -70 -72 -128 -134 -113
-121 -122 -131 -300 -320 -151 -160 -172 -182 -310 -330 -63 -68 -137 -146
-163 -174 -27 -28 -74 -78 -104 -111 -31 -33 -118 -125 -193 -205 -76 -80
-154 -163 -174 -185 -21 -22 -59 -62 -85 -90 -26 -27 -123 -131 -216 -230 -93
-99 -199 -211 -235 -250 -36 -38 -106 -113 -155 -165 -49 -52 -111 -117 -137
-145 -25 -27 -66 -71 -90 -96 -158 -169 -298 -318 -328 -349 -48 -50 -280
-297 -320 -340 -18 -19 -83 -89 -145 -155 -62 -66 -130 -138 -150 -160 -21
-22 -67 -71 -102 -108 -74 -78 -55 -80 -163 18 -57 51 -78 70 -240 215 -52 47
-99 90 -105 96 -5 6 -74 68 -152 139 l-143 127 32 37 c17 20 48 54 68 76 21
22 86 94 145 160 60 66 152 167 204 225 53 57 121 132 151 165 74 82 222 244
295 325 80 88 226 249 299 330 33 36 78 85 101 110 22 25 88 97 145 160 57 63
120 132 139 154 20 21 45 48 56 60 11 12 58 65 105 116 47 51 94 104 105 116
64 71 187 206 232 254 29 30 53 60 53 66 0 6 -32 40 -71 75 -40 35 -88 79
-108 97 -20 19 -62 56 -93 83 -55 49 -57 50 -75 31 -23 -23 -185 -201 -244
-267 -24 -27 -53 -59 -64 -70 -11 -12 -54 -59 -95 -105 -41 -45 -80 -88 -85
-94 -23 -25 -320 -352 -420 -462 -11 -12 -56 -62 -101 -110 -44 -49 -129 -143
-189 -209 -60 -66 -114 -125 -119 -131 -6 -6 -47 -51 -91 -100 -44 -48 -87
-95 -95 -104 -8 -9 -49 -54 -90 -100 -41 -46 -86 -96 -100 -110 -14 -15 -59
-64 -100 -110 -41 -46 -86 -95 -100 -110 -14 -15 -56 -62 -95 -105 -38 -42
-83 -93 -101 -112 l-32 -35 -43 39 c-24 21 -53 47 -64 58 -12 11 -54 49 -95
85 -40 36 -85 76 -100 90 -30 27 -54 49 -200 180 -52 47 -100 90 -106 95 -28
26 -201 183 -225 205 -15 14 -60 54 -100 90 -40 36 -80 72 -89 80 -9 8 -56 51
-106 95 -49 44 -109 99 -134 122 -25 23 -56 51 -70 63 -14 12 -60 53 -104 93
-43 39 -86 78 -96 87 -18 15 -181 163 -210 190 -9 8 -38 35 -66 59 -27 24 -90
82 -140 128 -51 46 -103 92 -116 103 l-25 19 -69 -76 c-112 -125 -157 -174
-197 -217 l-37 -41 49 -45 c27 -25 80 -73 117 -106 38 -34 81 -72 95 -85 84
-77 204 -186 220 -200 11 -9 58 -52 106 -95 139 -126 302 -273 392 -354 46
-41 94 -84 105 -95 12 -11 64 -58 116 -104 52 -47 100 -89 105 -95 6 -6 30
-29 55 -50 25 -21 70 -62 100 -90 30 -28 100 -91 155 -140 55 -49 127 -114
161 -145 87 -81 139 -127 227 -205 42 -38 77 -71 77 -75 0 -4 -15 -23 -32 -42
-18 -19 -73 -80 -123 -134 -49 -55 -106 -118 -126 -140 -20 -22 -49 -53 -64
-70 -15 -16 -62 -68 -104 -114 -42 -46 -85 -94 -96 -106 -11 -11 -58 -63 -105
-115 -47 -52 -92 -101 -100 -110 -8 -9 -53 -58 -100 -110 -47 -52 -102 -112
-122 -135 -20 -22 -45 -49 -55 -61 -10 -12 -59 -66 -109 -120 -50 -54 -110
-121 -135 -148 -24 -27 -55 -62 -69 -76 -14 -15 -61 -67 -105 -116 -44 -49
-105 -116 -135 -149 -30 -32 -59 -64 -65 -71 -12 -13 -146 -161 -199 -219
l-37 -40 64 -60 c60 -57 194 -179 247 -225 l25 -22 50 55 c42 45 101 109 220
241 11 12 58 64 105 116 47 51 108 119 135 149 28 31 75 83 106 116 30 33 188
206 349 385 162 179 297 327 300 330 3 3 46 50 95 105 50 55 95 105 100 111
36 39 165 181 190 208 17 18 64 70 105 116 121 134 129 142 139 138 5 -1 33
-25 63 -53 30 -27 87 -79 127 -115 40 -36 87 -78 105 -95 18 -16 65 -59 105
-95 82 -72 80 -71 211 -190 51 -47 107 -98 125 -115 17 -16 94 -86 171 -154
76 -69 159 -144 184 -167 25 -23 117 -106 205 -185 88 -78 167 -149 176 -158
8 -9 49 -45 89 -81 41 -36 101 -90 134 -121 34 -31 108 -98 166 -149 58 -52
119 -106 135 -121 75 -70 90 -79 97 -60 2 5 43 52 92 105 49 53 98 106 108
119 11 12 35 40 54 61 l35 39 -28 24 c-15 14 -41 37 -58 52 -16 15 -102 92
-190 172 -169 152 -244 221 -279 254 -12 11 -109 99 -216 195 -107 96 -204
183 -214 192 -23 21 -24 19 79 127 38 41 77 81 85 90 226 242 293 313 330 352
25 26 95 100 155 164 148 158 162 173 295 315 63 67 135 143 158 168 24 26 97
103 162 172 65 69 132 141 150 160 18 19 90 96 160 170 70 74 143 152 163 173
70 75 293 312 340 362 27 27 63 66 80 85 32 35 85 91 339 360 75 80 153 163
173 185 21 22 93 99 160 170 67 72 137 146 155 165 57 62 283 301 361 384 l76
80 54 -26 c75 -37 149 -65 190 -73 19 -3 50 -9 69 -13 19 -4 91 -7 160 -7 98
1 144 6 210 24 305 81 542 318 623 623 17 64 22 111 22 208 0 146 -7 198 -40
295 -98 288 -356 516 -650 575 -59 12 -245 20 -295 13z m230 -465 c144 -45
241 -140 286 -282 82 -258 -105 -527 -375 -541 -125 -7 -228 32 -321 121 -33
31 -60 61 -60 65 0 4 22 -16 50 -45 91 -97 209 -139 328 -118 126 22 222 95
278 209 26 51 29 69 29 153 0 83 -4 103 -27 153 -97 206 -354 278 -543 152
-147 -99 -205 -306 -128 -459 8 -15 10 -25 4 -22 -20 13 -53 123 -56 188 -6
121 37 231 124 318 60 60 143 105 212 115 24 4 45 8 47 9 6 7 119 -6 152 -16z"/>
<path d="M13300 17521 c-14 -16 -81 -89 -150 -162 -69 -73 -136 -145 -150
-160 -34 -37 -280 -297 -362 -384 -36 -38 -79 -83 -94 -100 -15 -16 -82 -88
-149 -160 -68 -71 -142 -150 -165 -175 -23 -25 -70 -74 -103 -110 -276 -293
-339 -359 -367 -390 -36 -39 -267 -286 -317 -338 -17 -19 -81 -86 -141 -150
-60 -64 -129 -137 -152 -162 -49 -53 -282 -300 -325 -345 -29 -31 -219 -234
-298 -319 -22 -22 -92 -97 -157 -166 -65 -69 -140 -149 -167 -178 l-49 -53
-44 25 c-55 32 -211 83 -282 93 -142 21 -323 -1 -454 -53 -150 -60 -307 -182
-396 -309 -30 -42 -110 -189 -107 -197 0 -2 -2 -10 -5 -18 -34 -105 -38 -133
-41 -270 -4 -145 10 -225 60 -347 111 -274 351 -470 650 -532 49 -10 291 -9
330 2 11 3 40 10 65 17 229 61 439 233 549 449 26 50 69 177 77 226 3 21 8 47
10 59 10 45 3 207 -11 273 -20 93 -29 121 -61 193 l-27 61 44 46 c24 26 55 59
69 73 14 15 79 85 145 155 66 71 134 144 152 162 17 19 87 93 156 166 68 73
136 145 150 161 15 16 83 88 151 160 68 72 139 147 157 167 77 83 267 285 304
324 35 36 187 198 315 335 85 91 297 316 357 380 34 36 76 81 94 100 18 19 69
73 113 120 45 47 135 143 201 214 66 71 138 148 160 171 22 24 93 99 158 168
64 68 129 137 144 153 14 16 89 95 166 176 77 81 145 155 152 164 11 15 6 23
-33 57 -25 22 -68 60 -95 86 -27 25 -55 51 -61 56 -6 6 -37 34 -68 63 -31 28
-60 52 -65 52 -4 0 -19 -13 -33 -29z m-3495 -3693 c192 -49 329 -243 310 -438
-15 -158 -98 -276 -243 -346 -155 -75 -335 -46 -464 74 -151 142 -176 364 -61
540 20 29 52 66 72 83 56 46 152 90 212 96 30 3 55 6 57 8 5 4 73 -5 117 -17z"/>
<path d="M14515 15438 c-218 -242 -198 -215 -177 -235 27 -27 283 -266 313
-294 49 -45 272 -254 333 -312 34 -33 81 -77 106 -99 25 -22 86 -79 136 -127
49 -47 151 -142 225 -211 74 -69 165 -154 203 -190 38 -36 81 -76 96 -90 39
-37 267 -250 304 -285 109 -101 424 -396 495 -463 19 -18 84 -79 144 -135 60
-56 129 -120 152 -142 24 -22 96 -89 161 -150 64 -60 136 -127 158 -148 23
-21 99 -93 171 -160 71 -67 168 -158 215 -202 47 -44 102 -95 122 -113 l37
-34 -34 -67 c-187 -372 -76 -840 256 -1089 485 -361 1172 -143 1364 433 23 70
42 207 39 290 -8 262 -136 510 -344 670 -177 135 -407 200 -622 174 -105 -13
-128 -18 -222 -55 -50 -19 -96 -36 -102 -37 -11 -2 -93 72 -334 298 -227 214
-455 427 -540 505 -19 18 -88 83 -154 144 -65 61 -137 128 -160 149 -22 22
-99 94 -170 160 -72 67 -137 129 -146 137 -9 8 -48 44 -86 80 -38 36 -134 126
-214 200 -79 74 -178 167 -220 206 -41 40 -91 86 -110 104 -53 49 -259 242
-289 270 -14 14 -84 79 -155 145 -71 66 -141 131 -156 145 -15 14 -84 79 -155
145 -70 66 -145 136 -165 155 -254 239 -365 340 -371 339 -2 0 -49 -50 -104
-111z m4056 -3442 c121 -37 215 -117 269 -231 28 -60 33 -81 36 -160 4 -108
-18 -181 -77 -261 -63 -86 -133 -133 -234 -160 -261 -70 -526 133 -528 405 -1
190 138 367 323 411 56 13 161 11 211 -4z"/>
<path d="M5780 10259 c0 -6 13 -61 29 -122 17 -62 61 -231 100 -377 76 -290
105 -397 127 -480 9 -30 17 -62 19 -70 3 -16 36 -140 175 -665 130 -491 171
-648 175 -665 2 -8 11 -42 20 -75 23 -86 61 -230 91 -342 14 -54 43 -163 64
-243 21 -80 43 -164 49 -187 l11 -41 223 1 222 2 78 295 c43 162 96 363 118
445 22 83 41 157 43 165 2 8 21 78 41 155 20 77 39 149 41 159 2 10 14 58 27
105 14 47 34 124 47 171 12 47 33 123 45 170 21 75 61 229 70 270 2 8 38 143
80 300 42 157 78 292 80 301 2 9 18 69 35 134 17 65 33 125 35 134 6 24 115
434 121 454 5 16 -11 17 -234 17 l-240 0 -33 -137 c-18 -76 -34 -142 -35 -148
-2 -5 -5 -19 -8 -30 -2 -11 -23 -96 -45 -189 -23 -93 -43 -178 -45 -190 -2
-12 -12 -50 -21 -86 -9 -35 -32 -127 -50 -205 -18 -77 -79 -329 -135 -560 -56
-231 -103 -428 -105 -438 -2 -10 -20 -85 -40 -167 -20 -82 -38 -155 -39 -162
-1 -7 -13 -57 -26 -111 -21 -89 -30 -108 -36 -74 -1 7 -21 89 -44 182 -23 94
-44 177 -45 185 -2 8 -13 56 -25 105 -12 50 -23 97 -25 105 -2 8 -13 53 -25
100 -12 47 -23 92 -25 100 -2 8 -9 38 -15 65 -6 28 -13 57 -15 65 -2 8 -22 92
-45 185 -51 209 -50 205 -56 233 -2 12 -25 107 -50 210 -59 245 -116 481 -161
667 -19 83 -43 182 -53 220 l-16 70 -237 3 c-168 2 -237 -1 -237 -9z"/>
<path d="M22086 10236 c7 -17 27 -58 45 -91 17 -33 74 -143 126 -245 53 -102
128 -248 168 -325 40 -77 107 -207 150 -290 42 -82 125 -242 183 -355 58 -113
113 -220 123 -239 l18 -34 -86 -166 c-180 -349 -243 -471 -325 -631 -47 -91
-122 -235 -166 -320 -44 -85 -103 -200 -132 -255 -28 -55 -55 -104 -61 -109
-5 -6 -9 -15 -9 -22 0 -7 -15 -38 -33 -71 -57 -101 -79 -91 199 -92 l245 0 71
147 c39 81 92 192 118 247 26 55 85 177 130 270 45 94 106 220 135 280 29 61
73 151 97 202 l45 92 43 -92 c24 -51 84 -175 133 -277 49 -102 127 -264 174
-360 46 -96 121 -250 165 -342 l81 -166 243 -1 c245 0 264 3 235 34 -4 6 -46
82 -91 170 -46 88 -104 201 -130 250 -26 50 -80 153 -120 230 -75 145 -149
286 -242 465 -31 58 -90 173 -133 255 -43 83 -93 177 -111 210 l-32 60 93 180
c51 99 139 270 195 380 56 110 144 281 195 380 51 99 143 279 205 400 62 121
116 224 121 230 28 30 8 33 -235 33 l-244 0 -53 -112 c-29 -61 -80 -169 -114
-241 -82 -172 -139 -293 -290 -610 -31 -66 -66 -139 -78 -163 l-21 -42 -31 67
c-18 38 -60 127 -95 198 -78 163 -162 339 -205 430 -18 39 -68 142 -110 230
-42 88 -85 179 -96 202 l-18 43 -244 -2 -245 -1 14 -31z"/>
<path d="M16183 10012 l-23 -3 0 -339 0 -339 -82 0 c-46 1 -99 0 -119 0 l-36
-1 1 -202 1 -203 118 -3 117 -3 1 -692 c0 -381 2 -710 5 -732 23 -237 104
-379 259 -455 86 -43 175 -56 365 -56 l165 1 0 210 0 210 -120 1 c-125 1 -156
9 -185 48 -40 55 -41 68 -41 741 0 358 0 667 1 688 l0 37 173 0 174 0 0 208 0
207 -173 -1 -174 -1 -1 56 c0 31 0 183 0 339 -1 256 -2 282 -17 282 -112 3
-392 4 -409 2z"/>
<path d="M10140 9363 c-257 -25 -470 -163 -594 -385 -26 -46 -72 -163 -81
-202 -2 -11 -6 -30 -8 -41 -30 -134 -32 -162 -32 -590 1 -388 3 -450 19 -525
39 -182 106 -317 212 -426 67 -68 118 -104 266 -183 l96 -52 199 1 c109 1 221
6 248 11 28 5 60 11 73 14 180 33 359 160 441 315 32 60 71 162 71 186 0 8
-73 37 -192 75 -106 34 -196 63 -200 66 -4 2 -21 -22 -37 -54 -65 -129 -155
-183 -313 -189 -147 -5 -265 40 -346 131 -77 88 -112 200 -112 368 l0 97 28 1
c15 0 292 1 615 1 l589 1 -5 301 c-2 166 -7 310 -9 321 -3 11 -9 40 -13 65
-30 190 -123 380 -243 498 -92 90 -246 167 -372 187 -50 8 -246 13 -300 8z
m279 -428 c108 -49 191 -164 220 -305 12 -58 21 -246 13 -267 -3 -10 -93 -13
-404 -13 l-400 0 5 118 c3 64 7 126 10 137 32 128 63 192 127 255 76 76 172
110 298 104 51 -2 89 -11 131 -29z"/>
<path d="M13915 9351 c-148 -36 -307 -139 -402 -262 -25 -32 -49 -59 -53 -59
-3 0 -5 68 -5 150 l1 150 -26 1 c-97 3 -412 0 -417 -5 -4 -4 -7 -2052 -4
-2293 l1 -42 222 2 223 2 1 775 c1 565 4 788 13 825 37 152 137 260 286 310
68 22 116 29 216 28 88 -1 159 -22 201 -60 14 -13 18 -13 23 -2 3 8 37 102 75
209 l70 195 -29 25 c-77 65 -246 87 -396 51z"/>
<path d="M19375 9345 c-102 -25 -129 -35 -203 -73 -202 -103 -328 -300 -371
-577 -10 -67 -8 -1034 2 -1077 4 -16 9 -39 11 -53 17 -93 80 -243 133 -315 44
-59 134 -140 196 -176 32 -19 61 -34 65 -34 4 0 21 -7 37 -16 96 -50 377 -78
537 -53 350 54 582 283 633 624 4 22 9 54 11 70 8 45 6 953 -1 1010 -4 28 -9
59 -11 70 -2 11 -7 34 -10 50 -3 17 -17 63 -30 103 -83 239 -272 396 -544 452
-125 26 -336 23 -455 -5z m359 -422 c130 -38 213 -137 241 -288 16 -86 12
-905 -4 -965 -33 -122 -93 -200 -190 -248 -51 -25 -66 -27 -171 -27 -129 0
-170 14 -248 81 -42 36 -95 130 -109 194 -9 42 -11 929 -2 981 9 50 50 137 83
177 33 38 100 79 159 97 56 17 179 16 241 -2z"/>
</g>
</svg>
